<svg viewBox="156 110.98757763975163 499.2 487.51552795031057" xmlns="http://www.w3.org/2000/svg" overflow="visible" xmlns:xlink="http://www.w3.org/1999/xlink" width="499.2px" height="487.51552795031057px"><g id="Master/Spot Illustration/Working" stroke="none" stroke-width="1" fill="none" fill-rule="evenodd"><g id="Floor/Carpet" transform="translate(151.721600, 471.398000) scale(1 1)"><g id="Floor/Carpet/Pink" stroke="none" stroke-width="1" fill="none" fill-rule="evenodd"><g id="Simple-Carpet" transform="translate(41.000000, 32.000000)"><path d="M450.8618,46.9304 C450.8618,72.5734 350.0448,93.3614 225.6808,93.3614 C101.3178,93.3614 0.5008,72.5734 0.5008,46.9304 C0.5008,21.2864 101.3178,0.4994 225.6808,0.4994 C350.0448,0.4994 450.8618,21.2864 450.8618,46.9304" id="Carpet" fill="#ea7f80"/><path d="M27.204,55.534 C27.48,55.534 27.704,55.31 27.704,55.034 C27.704,54.017 28.708,53.213 29.77,53.61 C30.001,53.694 30.257,53.604 30.38,53.392 C30.658,52.91 31.151,52.622 31.697,52.622 C32.387,52.622 32.992,53.092 33.168,53.764 C33.214,53.94 33.351,54.077 33.527,54.122 C33.701,54.168 33.889,54.113 34.014,53.982 C34.306,53.676 34.697,53.507 35.116,53.507 C35.958,53.507 36.644,54.192 36.644,55.034 C36.644,55.31 36.868,55.534 37.144,55.534 C37.42,55.534 37.644,55.31 37.644,55.034 C37.644,53.64 36.51,52.507 35.116,52.507 C34.665,52.507 34.234,52.624 33.854,52.845 C33.406,52.1 32.595,51.622 31.697,51.622 C30.936,51.622 30.217,51.974 29.741,52.561 C28.168,52.228 26.704,53.471 26.704,55.034 C26.704,55.31 26.928,55.534 27.204,55.534 M370.476,81.984 C330.035,88.998 278.613,92.861 225.681,92.861 C101.792,92.861 1,72.257 1,46.93 C1,46.654 0.777,46.43 0.5,46.43 C0.224,46.43 0,46.654 0,46.93 C0,59.596 23.565,71.429 66.353,80.252 C108.917,89.028 165.5,93.861 225.681,93.861 C278.668,93.861 330.151,89.993 370.647,82.969 C370.919,82.922 371.101,82.663 371.054,82.391 C371.007,82.118 370.748,81.928 370.476,81.984 M84.281,48.887 C84.557,48.887 84.781,48.663 84.781,48.387 C84.781,47.368 85.792,46.565 86.846,46.962 C87.074,47.049 87.334,46.957 87.457,46.745 C87.735,46.263 88.227,45.974 88.774,45.974 C89.464,45.974 90.069,46.444 90.245,47.116 C90.291,47.291 90.428,47.428 90.603,47.473 C90.78,47.517 90.965,47.465 91.09,47.335 C91.383,47.027 91.775,46.858 92.193,46.858 C93.035,46.858 93.721,47.544 93.721,48.387 C93.721,48.663 93.944,48.887 94.221,48.887 C94.497,48.887 94.721,48.663 94.721,48.387 C94.721,46.992 93.587,45.858 92.193,45.858 C91.742,45.858 91.311,45.975 90.932,46.197 C90.483,45.453 89.672,44.974 88.774,44.974 C88.013,44.974 87.294,45.326 86.819,45.914 C85.248,45.571 83.781,46.822 83.781,48.387 C83.781,48.663 84.004,48.887 84.281,48.887 M374.247,70.53 C373.797,70.53 373.366,70.647 372.986,70.869 C372.538,70.125 371.727,69.645 370.829,69.645 C370.068,69.645 369.35,69.998 368.873,70.586 C367.301,70.244 365.835,71.494 365.835,73.058 C365.835,73.335 366.059,73.558 366.335,73.558 C366.612,73.558 366.835,73.335 366.835,73.058 C366.835,72.04 367.846,71.236 368.901,71.634 C369.127,71.721 369.389,71.63 369.512,71.417 C369.79,70.933 370.282,70.645 370.829,70.645 C371.518,70.645 372.123,71.115 372.299,71.788 C372.346,71.963 372.482,72.099 372.658,72.145 C372.834,72.191 373.019,72.137 373.145,72.007 C373.438,71.699 373.829,71.53 374.247,71.53 C375.09,71.53 375.775,72.216 375.775,73.058 C375.775,73.335 375.999,73.558 376.275,73.558 C376.552,73.558 376.775,73.335 376.775,73.058 C376.775,71.664 375.641,70.53 374.247,70.53 M381.316,49.296 C380.866,49.296 380.434,49.413 380.055,49.634 C379.607,48.889 378.796,48.411 377.898,48.411 C377.137,48.411 376.418,48.763 375.942,49.35 C374.366,49.02 372.905,50.262 372.905,51.823 C372.905,52.099 373.128,52.323 373.405,52.323 C373.681,52.323 373.905,52.099 373.905,51.823 C373.905,50.806 374.908,50 375.971,50.399 C376.2,50.485 376.458,50.393 376.58,50.181 C376.859,49.699 377.351,49.411 377.898,49.411 C378.587,49.411 379.192,49.881 379.369,50.554 C379.415,50.729 379.552,50.866 379.728,50.911 C379.903,50.957 380.09,50.902 380.215,50.771 C380.507,50.465 380.898,50.296 381.316,50.296 C382.159,50.296 382.845,50.981 382.845,51.823 C382.845,52.099 383.068,52.323 383.345,52.323 C383.621,52.323 383.845,52.099 383.845,51.823 C383.845,50.43 382.71,49.296 381.316,49.296 M322.598,41.208 C322.874,41.208 323.098,40.984 323.098,40.708 C323.098,39.691 324.101,38.886 325.164,39.284 C325.394,39.368 325.651,39.277 325.774,39.066 C326.052,38.584 326.545,38.296 327.091,38.296 C327.781,38.296 328.386,38.765 328.562,39.438 C328.608,39.614 328.746,39.751 328.921,39.796 C329.096,39.842 329.283,39.787 329.408,39.656 C329.7,39.349 330.091,39.18 330.51,39.18 C331.352,39.18 332.038,39.866 332.038,40.708 C332.038,40.984 332.262,41.208 332.538,41.208 C332.814,41.208 333.038,40.984 333.038,40.708 C333.038,39.314 331.904,38.18 330.51,38.18 C330.059,38.18 329.628,38.298 329.248,38.518 C328.8,37.774 327.989,37.296 327.091,37.296 C326.33,37.296 325.611,37.648 325.135,38.235 C323.559,37.903 322.099,39.145 322.098,40.708 C322.098,40.984 322.322,41.208 322.598,41.208 M261.808,79.283 C262.084,79.283 262.308,79.059 262.308,78.783 C262.308,77.766 263.312,76.961 264.374,77.359 C264.603,77.443 264.861,77.353 264.983,77.141 C265.262,76.659 265.754,76.371 266.301,76.371 C266.99,76.371 267.595,76.841 267.772,77.513 C267.818,77.687 267.955,77.824 268.13,77.87 C268.306,77.915 268.492,77.862 268.617,77.731 C268.91,77.425 269.301,77.256 269.719,77.256 C270.562,77.256 271.247,77.941 271.247,78.783 C271.247,79.059 271.471,79.283 271.747,79.283 C272.024,79.283 272.247,79.059 272.247,78.783 C272.247,77.389 271.113,76.256 269.719,76.256 C269.268,76.256 268.837,76.373 268.458,76.594 C268.01,75.849 267.199,75.371 266.301,75.371 C265.54,75.371 264.821,75.723 264.345,76.31 C262.77,75.98 261.308,77.221 261.308,78.783 C261.308,79.059 261.531,79.283 261.808,79.283 M149.03,69.412 C148.582,68.668 147.771,68.189 146.873,68.189 C146.112,68.189 145.393,68.542 144.917,69.129 C143.341,68.798 141.88,70.039 141.88,71.601 C141.88,71.878 142.103,72.101 142.38,72.101 C142.656,72.101 142.88,71.878 142.88,71.601 C142.879,70.585 143.883,69.779 144.946,70.178 C145.176,70.262 145.433,70.171 145.556,69.96 C145.834,69.477 146.327,69.189 146.873,69.189 C147.562,69.189 148.167,69.659 148.344,70.332 C148.39,70.508 148.527,70.644 148.703,70.689 C148.878,70.735 149.065,70.68 149.19,70.55 C149.482,70.243 149.873,70.074 150.291,70.074 C151.134,70.074 151.82,70.76 151.82,71.601 C151.82,71.878 152.043,72.101 152.32,72.101 C152.596,72.101 152.82,71.878 152.82,71.601 C152.82,70.208 151.685,69.074 150.291,69.074 C149.841,69.074 149.41,69.191 149.03,69.412 M130.1,5.378 C130.116,5.378 130.132,5.377 130.149,5.376 C160.142,2.471 192.284,1 225.681,1 C225.957,1 226.181,0.776 226.181,0.5 C226.181,0.223 225.957,-1.13686838e-13 225.681,-1.13686838e-13 C192.252,-1.13686838e-13 160.078,1.473 130.052,4.38 C129.777,4.407 129.576,4.651 129.603,4.926 C129.628,5.184 129.846,5.378 130.1,5.378 M239.764,16.89 C240.04,16.89 240.264,16.667 240.264,16.39 C240.264,15.374 241.268,14.569 242.331,14.967 C242.561,15.051 242.818,14.961 242.94,14.749 C243.218,14.266 243.711,13.978 244.257,13.978 C244.947,13.978 245.552,14.448 245.728,15.12 C245.774,15.295 245.911,15.431 246.087,15.477 C246.262,15.521 246.448,15.469 246.574,15.339 C246.866,15.032 247.258,14.863 247.676,14.863 C248.518,14.863 249.204,15.549 249.204,16.39 C249.204,16.667 249.428,16.89 249.704,16.89 C249.98,16.89 250.204,16.667 250.204,16.39 C250.204,14.997 249.07,13.863 247.676,13.863 C247.225,13.863 246.794,13.98 246.415,14.201 C245.967,13.457 245.156,12.978 244.257,12.978 C243.496,12.978 242.777,13.331 242.301,13.918 C240.73,13.587 239.264,14.828 239.264,16.39 C239.264,16.667 239.488,16.89 239.764,16.89" id="Fill-15" fill="#000000"/></g></g></g><g id="Working Stuff" transform="translate(180.822000, 90.172000) scale(1 1)"><g id="Working Stuff/Windows" stroke="none" stroke-width="1" fill="none" fill-rule="evenodd"><g id="Working-Windows" transform="translate(8.000000, 24.000000)"><polygon id="Fill-1" fill="#eeeffb" points="59 59 210 59 210 1 59 1"/><path d="M210.224867,0.823099559 C210.47268,0.823099559 210.673803,1.02440352 210.673803,1.27243877 L210.673803,59.0296018 C210.673803,59.277637 210.47268,59.478941 210.224867,59.478941 L59.2377562,59.478941 C58.9899434,59.478941 58.78882,59.277637 58.78882,59.0296018 C58.78882,58.7815665 58.9899434,58.5802626 59.2377562,58.5802626 L209.775931,58.5802626 L209.775931,1.27243877 C209.775931,1.02440352 209.977054,0.823099559 210.224867,0.823099559 Z M120.630945,9.72639648 C120.878757,9.72639648 121.079881,9.92680176 121.079881,10.1757357 L121.079881,51.1410925 C121.079881,51.3891278 120.878757,51.5904317 120.630945,51.5904317 L69.0005915,51.5904317 C68.7518809,51.5904317 68.5516553,51.3891278 68.5516553,51.1410925 L68.5516553,10.1757357 C68.5516553,9.92680176 68.7518809,9.72639648 69.0005915,9.72639648 L120.630945,9.72639648 Z M120.182009,10.6250749 L69.4495277,10.6250749 L69.4495277,50.6917533 L120.182009,50.6917533 L120.182009,10.6250749 Z" id="Combined-Shape" fill="#000000"/><polygon id="Fill-8" fill="#eeeffb" points="0.44893617 156.955084 156.641911 156.955084 156.641911 53.6007753 0.44893617 53.6007753"/><polygon id="Fill-9" fill="#eeeffb" points="108.915506 204 206.536677 204 206.536677 117.437498 108.915506 117.437498"/><path d="M206.536677,169.115101 L206.536677,204 L108.915506,204 L108.915506,169.115101 L206.536677,169.115101 Z M156.641911,44.4818855 L156.641911,53.6007753 L0.44893617,53.6007753 L0.44893617,44.4818855 L156.641911,44.4818855 Z" id="Interface-color" fill="#a7acea"/><path d="M186.362383,180.824881 C186.610196,180.824881 186.811319,181.025286 186.811319,181.27422 L186.811319,194.012088 C186.811319,194.260123 186.610196,194.461427 186.362383,194.461427 L129.090698,194.461427 C128.842885,194.461427 128.641762,194.260123 128.641762,194.012088 L128.641762,181.27422 C128.641762,181.025286 128.842885,180.824881 129.090698,180.824881 L186.362383,180.824881 Z M185.912549,181.723559 L129.539634,181.723559 L129.539634,193.562749 L185.912549,193.562749 L185.912549,181.723559 Z M206.537305,116.988428 C206.785118,116.988428 206.986241,117.188833 206.986241,117.437767 C206.986241,117.685803 206.785118,117.887107 206.537305,117.887107 L109.365071,117.887107 L109.365071,191.550878 C109.365071,191.798913 109.163948,192.000217 108.916135,192.000217 C108.668322,192.000217 108.467199,191.798913 108.467199,191.550878 L108.467199,117.437767 C108.467199,117.188833 108.668322,116.988428 108.916135,116.988428 L206.537305,116.988428 Z M206.536946,168.665313 C206.784759,168.665313 206.985882,168.866617 206.985882,169.114652 C206.985882,169.362687 206.784759,169.563991 206.536946,169.563991 L128.150895,169.563991 C127.903082,169.563991 127.701959,169.362687 127.701959,169.114652 C127.701959,168.866617 127.903082,168.665313 128.150895,168.665313 L206.536946,168.665313 Z M199.305751,157.519184 C199.553564,157.519184 199.754688,157.720488 199.754688,157.968523 C199.754688,158.216559 199.553564,158.417863 199.305751,158.417863 L142.613194,158.417863 C142.365381,158.417863 142.164258,158.216559 142.164258,157.968523 C142.164258,157.720488 142.365381,157.519184 142.613194,157.519184 L199.305751,157.519184 Z M124.680618,133.200407 C130.669427,133.200407 135.54218,138.077535 135.54218,144.072619 C135.54218,150.066804 130.669427,154.943931 124.680618,154.943931 C118.690912,154.943931 113.818159,150.066804 113.818159,144.072619 C113.818159,138.077535 118.690912,133.200407 124.680618,133.200407 Z M124.680618,134.099085 C119.186537,134.099085 114.716031,138.573605 114.716031,144.072619 C114.716031,149.571632 119.186537,154.045253 124.680618,154.045253 C130.174699,154.045253 134.644308,149.571632 134.644308,144.072619 C134.644308,138.573605 130.174699,134.099085 124.680618,134.099085 Z M199.305751,145.359796 C199.553564,145.359796 199.754688,145.5611 199.754688,145.809135 C199.754688,146.05717 199.553564,146.258474 199.305751,146.258474 L142.613194,146.258474 C142.365381,146.258474 142.164258,146.05717 142.164258,145.809135 C142.164258,145.5611 142.365381,145.359796 142.613194,145.359796 L199.305751,145.359796 Z M199.305751,133.200407 C199.553564,133.200407 199.754688,133.401711 199.754688,133.649746 C199.754688,133.897781 199.553564,134.099085 199.305751,134.099085 L142.613194,134.099085 C142.365381,134.099085 142.164258,133.897781 142.164258,133.649746 C142.164258,133.401711 142.365381,133.200407 142.613194,133.200407 L199.305751,133.200407 Z" id="Combined-Shape" fill="#000000"/><path d="M72.9045404,65.7455154 C73.1532511,65.7455154 73.3534766,65.9468194 73.3534766,66.1948546 L73.3534766,145.808775 C73.3534766,146.057709 73.1532511,146.258115 72.9045404,146.258115 L9.84965957,146.258115 C9.60094894,146.258115 9.4007234,146.057709 9.4007234,145.808775 L9.4007234,66.1948546 C9.4007234,65.9468194 9.60094894,65.7455154 9.84965957,65.7455154 L72.9045404,65.7455154 Z M72.4565021,66.6441938 L10.2985957,66.6441938 L10.2985957,145.359436 L72.4565021,145.359436 L72.4565021,66.6441938 Z M147.530751,90.9326855 C147.778564,90.9326855 147.979687,91.1339894 147.979687,91.3820247 C147.979687,91.6300599 147.778564,91.8313639 147.530751,91.8313639 L81.5829255,91.8313639 C81.3342149,91.8313639 81.1339894,91.6300599 81.1339894,91.3820247 C81.1339894,91.1339894 81.3342149,90.9326855 81.5829255,90.9326855 L147.530751,90.9326855 Z M147.530751,82.537052 C147.778564,82.537052 147.979687,82.7383559 147.979687,82.9863912 C147.979687,83.2344264 147.778564,83.4357304 147.530751,83.4357304 L81.5829255,83.4357304 C81.3342149,83.4357304 81.1339894,83.2344264 81.1339894,82.9863912 C81.1339894,82.7383559 81.3342149,82.537052 81.5829255,82.537052 L147.530751,82.537052 Z M147.530751,74.1413286 C147.778564,74.1413286 147.979687,74.3426326 147.979687,74.5906678 C147.979687,74.8387031 147.778564,75.040007 147.530751,75.040007 L81.5829255,75.040007 C81.3342149,75.040007 81.1339894,74.8387031 81.1339894,74.5906678 C81.1339894,74.3426326 81.3342149,74.1413286 81.5829255,74.1413286 L147.530751,74.1413286 Z M147.530751,65.7456053 C147.778564,65.7456053 147.979687,65.9469093 147.979687,66.1949445 C147.979687,66.4429797 147.778564,66.6442837 147.530751,66.6442837 L81.5829255,66.6442837 C81.3342149,66.6442837 81.1339894,66.4429797 81.1339894,66.1949445 C81.1339894,65.9469093 81.3342149,65.7456053 81.5829255,65.7456053 L147.530751,65.7456053 Z M156.641911,44.0329057 C156.889723,44.0329057 157.090847,44.233311 157.090847,44.4822449 L157.090847,53.6011348 C157.090847,53.84917 156.889723,54.050474 156.641911,54.050474 L0.44893617,54.050474 C0.201123404,54.050474 8.52651283e-14,53.84917 8.52651283e-14,53.6011348 C8.52651283e-14,53.3530996 0.201123404,53.1517956 0.44893617,53.1517956 L156.192974,53.1517956 L156.192974,44.4822449 C156.192974,44.233311 156.394098,44.0329057 156.641911,44.0329057 Z M20.8325238,46.3485304 C22.2754047,46.3485304 23.4507196,47.5240018 23.4507196,48.9690767 C23.4507196,50.4141515 22.2754047,51.5905216 20.8325238,51.5905216 C19.389643,51.5905216 18.2143281,50.4141515 18.2143281,48.9690767 C18.2143281,47.5240018 19.389643,46.3485304 20.8325238,46.3485304 Z M30.0883306,46.3485304 C31.5312115,46.3485304 32.7065264,47.5240018 32.7065264,48.9690767 C32.7065264,50.4141515 31.5312115,51.5905216 30.0883306,51.5905216 C28.6454498,51.5905216 27.4701349,50.4141515 27.4701349,48.9690767 C27.4701349,47.5240018 28.6454498,46.3485304 30.0883306,46.3485304 Z M39.3441374,46.3485304 C40.7870183,46.3485304 41.9623332,47.5240018 41.9623332,48.9690767 C41.9623332,50.4141515 40.7870183,51.5905216 39.3441374,51.5905216 C37.9012566,51.5905216 36.7259417,50.4141515 36.7259417,48.9690767 C36.7259417,47.5240018 37.9012566,46.3485304 39.3441374,46.3485304 Z M20.8325238,47.2472088 C19.8834728,47.2472088 19.1122004,48.0191736 19.1122004,48.9690767 C19.1122004,49.9189797 19.8834728,50.6918432 20.8325238,50.6918432 C21.7815749,50.6918432 22.5528472,49.9189797 22.5528472,48.9690767 C22.5528472,48.0191736 21.7815749,47.2472088 20.8325238,47.2472088 Z M30.0883306,47.2472088 C29.1392796,47.2472088 28.3680072,48.0191736 28.3680072,48.9690767 C28.3680072,49.9189797 29.1392796,50.6918432 30.0883306,50.6918432 C31.0373817,50.6918432 31.808654,49.9189797 31.808654,48.9690767 C31.808654,48.0191736 31.0373817,47.2472088 30.0883306,47.2472088 Z M39.3441374,47.2472088 C38.3950864,47.2472088 37.623814,48.0191736 37.623814,48.9690767 C37.623814,49.9189797 38.3950864,50.6918432 39.3441374,50.6918432 C40.2931885,50.6918432 41.0644609,49.9189797 41.0644609,48.9690767 C41.0644609,48.0191736 40.2931885,47.2472088 39.3441374,47.2472088 Z" id="Combined-Shape" fill="#000000"/><path d="M176.367268,83.5993797 L190.255557,87.7144282 C191.157021,87.9813357 191.446136,89.1172652 190.780813,89.7831859 L187.051949,93.5136993 L193.054764,99.5210855 C193.756003,100.222953 193.756003,101.36068 193.054764,102.062548 C192.703696,102.413931 192.244883,102.589174 191.785173,102.589174 C191.325462,102.589174 190.866649,102.413931 190.515581,102.062548 L184.512949,96.0546993 L181.002983,99.5688952 C180.338557,100.234816 179.203647,99.9463401 178.936979,99.044067 L174.825621,85.1424106 C174.546383,84.1987982 175.423604,83.3198907 176.367268,83.5993797 Z" id="Combined-Shape" fill="#000000"/></g></g></g><g id="Desk" transform="translate(161.000000, 285.770000)"><polygon fill="#a5abea" points="268.0898 54.7969 1.3518 54.7969 1.3518 121.4819 84.7078 121.4819 84.7078 73.6429 268.0898 73.6429"/><path d="M268.0898,54.2969 C267.8138,54.2969 267.5898,54.5209 267.5898,54.7969 L267.5898,73.3839 L1.8518,73.3839 L1.8518,54.7969 C1.8518,54.5209 1.6288,54.2969 1.3518,54.2969 C1.0758,54.2969 0.8518,54.5209 0.8518,54.7969 L0.8518,243.0109 C0.8518,243.2869 1.0758,243.5109 1.3518,243.5109 C1.6288,243.5109 1.8518,243.2869 1.8518,243.0109 L1.8518,74.3839 L267.5898,74.3839 L267.5898,243.0109 C267.5898,243.2869 267.8138,243.5109 268.0898,243.5109 C268.3658,243.5109 268.5898,243.2869 268.5898,243.0109 L268.5898,54.7969 C268.5898,54.5209 268.3658,54.2969 268.0898,54.2969 L268.0898,54.2969 Z M26.2548,84.7389 L60.2878,84.7389 L60.2878,83.0819 L26.2548,83.0819 L26.2548,84.7389 Z M60.7878,82.0819 L25.7548,82.0819 C25.4788,82.0819 25.2548,82.3059 25.2548,82.5819 L25.2548,85.2389 C25.2548,85.5159 25.4788,85.7389 25.7548,85.7389 L60.7878,85.7389 C61.0648,85.7389 61.2878,85.5159 61.2878,85.2389 L61.2878,82.5819 C61.2878,82.3059 61.0648,82.0819 60.7878,82.0819 L60.7878,82.0819 Z" id="Fill-44" fill="#000000"/><polygon id="Fill-45" fill="#ef9e9f" points="6.4996 54.839 19.9046 54.839 19.9046 0.23 6.4996 0.23"/><polygon id="Fill-46" fill="#a7acea" points="19.9046 54.839 33.3096 54.839 33.3096 12.338 19.9046 12.338"/><path d="M33.31,11.8377 C33.033,11.8377 32.81,12.0617 32.81,12.3377 L32.81,54.3387 L20.405,54.3387 L20.405,20.7897 C20.405,20.5137 20.181,20.2897 19.905,20.2897 C19.628,20.2897 19.405,20.5137 19.405,20.7897 L19.405,54.3387 L6.5,54.3387 C6.224,54.3387 6,54.5627 6,54.8387 C6,55.1157 6.224,55.3387 6.5,55.3387 L33.31,55.3387 C33.586,55.3387 33.81,55.1157 33.81,54.8387 L33.81,12.3377 C33.81,12.0617 33.586,11.8377 33.31,11.8377" id="Path" fill="#000000"/></g><g id="Chair" transform="translate(443.271900, 271.524000)"><path d="M131.249,71.057 C129.285,74.494 126.985,76.475 124.529,76.475 C117.344,76.475 111.499,59.546 111.499,38.737 C111.499,17.929 117.344,1 124.529,1 C131.713,1 137.559,17.929 137.559,38.737 C137.559,52.194 135.113,64.02 131.442,70.703 C131.331,70.788 131.259,70.913 131.249,71.057 Z M124.529,0 C116.662,0 110.499,17.015 110.499,38.737 C110.499,60.46 116.662,77.475 124.529,77.475 C127.021,77.475 129.341,75.764 131.349,72.739 C132.51,91.369 129.258,117.324 108.229,138.353 C108.034,138.549 108.034,138.865 108.229,139.06 C108.327,139.158 108.455,139.207 108.583,139.207 C108.711,139.207 108.838,139.158 108.936,139.06 C130.769,117.227 133.677,90.177 132.249,71.257 C136.075,64.408 138.559,52.524 138.559,38.737 C138.559,17.015 132.396,0 124.529,0 Z M109.083,136.821 C109.083,136.545 108.859,136.321 108.583,136.321 L0.5,136.321 C0.223,136.321 -1.27897692e-12,136.545 -1.27897692e-12,136.821 L-1.27897692e-12,150.593 C-1.27897692e-12,150.869 0.223,151.093 0.5,151.093 C0.776,151.093 1,150.869 1,150.593 L1,137.321 L108.583,137.321 C108.859,137.321 109.083,137.098 109.083,136.821 M86.426,241.555184 L57.378,222.819344 L57.378,140.49861 C57.378,140.232684 57.154,140.018598 56.878,140.018598 C56.601,140.018598 56.378,140.232684 56.378,140.49861 L56.378,222.819344 L27.159,241.664626 C26.239,241.304617 25.235,241.103012 24.18,241.103012 C19.821,241.103012 16.288,244.495739 16.288,248.679526 C16.288,252.865233 19.821,256.257 24.18,256.257 C28.539,256.257 32.073,252.865233 32.073,248.679526 C32.073,245.901215 30.509,243.478113 28.186,242.159999 L56.378,223.976174 L56.378,241.127013 C52.253,241.376619 48.985,244.657983 48.985,248.679526 C48.985,252.865233 52.519,256.257 56.878,256.257 C61.237,256.257 64.77,252.865233 64.77,248.679526 C64.77,244.657023 61.503,241.375659 57.378,241.127013 L57.378,223.976174 L85.341,242.012155 C82.876,243.294748 81.2,245.798492 81.2,248.679526 C81.2,252.865233 84.734,256.257 89.092,256.257 C93.452,256.257 96.985,252.865233 96.985,248.679526 C96.985,244.495739 93.452,241.103012 89.092,241.103012 C88.156,241.103012 87.26,241.267176 86.426,241.555184 Z" id="Fill-161" fill="#000000"/><polygon fill="#a7acea" points="0.4991 151.593 108.5821 151.593 108.5821 137.822 0.4991 137.822"/></g><g transform="translate(481.908400, 153.500000) scale(-1, 1) translate(-481.908400, -153.500000) translate(216.408400, -222.000000) scale(1 1)" id="Master/Character/Sitting on Chair"><defs><polygon id="mastercharactersitting-on-chair-path-1" points="0 0.0003 46.889 0.0003 46.889 52.9562 0 52.9562"/></defs><g id="Master/Character/Sitting on Chair" stroke="none" stroke-width="1" fill="none" fill-rule="evenodd"><g id="Lower Body/Sitting on Chair" transform="translate(71.000000, 393.000000) scale(1 1)"><g id="Lower Body/Sitting on Chair/Long Pants Blue" stroke="none" stroke-width="1" fill="none" fill-rule="evenodd"><g id="Group" transform="translate(136.000237, 172.000500)"><path d="M171.995463,183.4617 C165.998463,179.7867 138.348463,169.5077 137.720463,161.1367 C136.744463,148.1447 136.777463,127.3727 136.950463,112.4327 C128.895463,113.2817 119.621463,114.1667 109.759463,114.9307 L120.922463,161.3367 C121.462463,165.5237 122.189463,165.9247 117.637463,175.4227 C116.646463,177.4877 116.446463,179.1507 116.715463,180.4927 C106.534463,175.7087 88.8334635,167.8157 88.3324635,161.1367 C87.3564635,148.1447 87.3904635,127.3727 87.5624635,112.4327 C79.5074635,113.2817 70.2344635,114.1667 60.3714635,114.9307 L71.5344635,161.3367 C72.0744635,165.5237 72.8014635,165.9247 68.2494635,175.4227 C63.9354635,184.4197 74.4884635,185.8437 74.4884635,185.8437 L121.891463,185.962706 C122.237463,185.9637 122.549463,185.8297 122.788463,185.6167 C123.441463,185.7837 123.875463,185.8437 123.875463,185.8437 L171.278463,185.962706 C172.026463,185.9647 172.632463,185.3587 172.632463,184.6117 C172.632463,184.1417 172.396463,183.7067 171.995463,183.4617" id="Skin" fill="#f7d0d1"/><path d="M171.995463,183.4617 C170.256463,182.3967 153.927463,173.7117 149.204463,172.0627 C145.635463,179.7677 122.364463,176.1377 120.171463,169.7407 C120.142463,169.8117 117.416463,175.3697 117.388463,175.4407 C116.625463,177.3807 116.470463,178.9597 116.692463,180.2497 C111.001463,177.2507 102.913463,173.1447 99.8174635,172.0627 C96.2474635,179.7677 72.9764635,176.1377 70.7834635,169.7407 C70.7554635,169.8117 68.0284635,175.3697 68.0004635,175.4407 C64.3504635,184.7277 74.4884635,185.8437 74.4884635,185.8437 L121.891463,185.962706 C122.227463,185.9637 122.532463,185.8367 122.769463,185.6337 C123.432463,185.7937 123.875463,185.8437 123.875463,185.8437 L171.279463,185.962706 C172.026463,185.9647 172.632463,185.3587 172.632463,184.6117 C172.632463,184.1417 172.396463,183.7067 171.995463,183.4617" id="Shoes" fill="#a5abea"/><path d="M125.389783,162.106314 L141.36312,160.57927 C143.10512,160.31527 144.29312,158.67527 143.99912,156.93627 L135.628463,41.5715 C134.075463,30.1775 124.243463,21.6165 112.606463,21.8305 L96.2224635,22.1345 L94.3504635,0.4995 L6.65046348,0.4995 C6.65046348,0.4995 -3.29353652,37.0775 1.13746348,49.8745 C5.12746348,61.4015 13.5404635,69.4065 51.7264635,66.2475 L66.4175326,158.956314 C66.4145326,160.781314 67.9575326,162.227314 69.7795326,162.106314 L91.8164635,160.57927 C93.6434635,160.45727 94.9814635,158.81027 94.7284635,156.99727 L91.8164635,64.0445 L96.9244635,64.2575 L116.316084,160.52827 C116.518084,162.30427 118.153084,163.55727 119.920084,163.28927" id="Pants" fill="#595e8d"/><path d="M94.7304635,53.759 L100.071214,82.8 C100.104214,83.052 100.814214,85.7823348 101.062214,85.7823348 C101.083214,85.7823348 100.609214,83.235 100.631214,83.232 C100.905214,83.196 101.098214,82.945 101.062214,82.671 L95.7224635,53.63 C95.6864635,53.356 95.4324635,53.157 95.1614635,53.198 C94.8874635,53.234 94.6944635,53.485 94.7304635,53.759 Z M122.869463,183.035 C121.104463,181.955 104.807463,173.275 99.9824635,171.591 C99.9594635,171.583 99.9364635,171.586 99.9134635,171.581 C99.8784635,171.574 99.8444635,171.565 99.8094635,171.566 C99.7764635,171.566 99.7464635,171.575 99.7144635,171.582 C99.6834635,171.588 99.6544635,171.593 99.6244635,171.605 C99.5944635,171.618 99.5684635,171.637 99.5404635,171.656 C99.5154635,171.674 99.4894635,171.689 99.4674635,171.712 C99.4434635,171.735 99.4264635,171.764 99.4074635,171.793 C99.3934635,171.814 99.3744635,171.829 99.3634635,171.852 C98.0444635,174.701 93.4214635,176.198 86.9984635,175.872 C79.3724635,175.477 72.3104635,172.654 71.2564635,169.579 C71.1894635,169.386 71.0124635,169.255 70.8074635,169.244 C70.5944635,169.248 70.4134635,169.35 70.3274635,169.537 C70.2824635,169.634 69.6384635,170.95 68.9814635,172.291 C67.6224635,175.07 67.5524635,175.216 67.5354635,175.257 C67.4354635,175.509 67.5564635,175.792 67.8054635,175.898 C68.0544635,176.006 68.3434635,175.891 68.4574635,175.644 C68.5044635,175.542 69.1984635,174.124 69.8804635,172.731 C70.3014635,171.87 70.5924635,171.276 70.7924635,170.866 C73.0214635,174.236 80.4204635,176.533 86.9464635,176.871 C87.5384635,176.901 88.1164635,176.917 88.6804635,176.917 C94.3454635,176.917 98.4874635,175.38 100.051463,172.68 C105.088463,174.592 120.524463,182.772 122.347463,183.888 C122.596463,184.041 122.744463,184.311 122.744463,184.612 C122.744463,184.888 122.968463,185.112 123.244463,185.112 C123.521463,185.112 123.744463,184.888 123.744463,184.612 C123.744463,183.96 123.417463,183.371 122.869463,183.035 L122.869463,183.035 Z M90.8114635,64.078 C90.8114635,64.08 90.8124635,64.082 90.8124635,64.083 L93.2942131,104.490448 C93.3162131,104.751448 93.5782131,105.835665 93.8352131,105.835665 C93.8492131,105.835665 94.2772131,105.835665 94.2912131,105.835665 C94.5662131,105.81222 94.3142131,104.680448 94.2912131,104.404448 L91.8064635,63.981 C91.8064635,63.979 91.8054635,63.978 91.8054635,63.976 C91.8044635,63.974 91.8054635,63.972 91.8054635,63.969 L88.9314635,37.684 C87.8654635,27.943 79.6754635,20.405 69.8814635,20.148 L37.2644635,19.295 C37.0354635,19.302 36.7584635,19.506 36.7501132,19.781 C36.7444635,20.057 36.9614635,20.287 37.2374635,20.295 L69.8544635,21.148 C79.1514635,21.391 86.9254635,28.547 87.9364635,37.793 L90.8114635,64.078 Z M95.6644635,21.479 L85.7364635,21.637 C85.4594635,21.641 85.2394635,21.869 85.2444635,22.145 C85.2484635,22.419 85.4714635,22.637 85.7444635,22.637 L85.7514635,22.637 L95.8724635,22.476 C95.9704635,22.577 96.1014635,22.642 96.2324635,22.635 L112.615463,22.332 C112.756463,22.329 112.894463,22.328 113.034463,22.328 C124.656463,22.328 134.396463,31.304 135.298463,42.938 C135.319463,43.2 135.537463,43.399 135.796463,43.399 C135.809463,43.399 135.822463,43.399 135.835463,43.398 C136.111463,43.377 136.317463,43.136 136.295463,42.861 C135.341463,30.559 124.926463,21.098 112.597463,21.332 L101.302463,21.541 C101.204463,21.447 101.077463,21.39 100.957463,21.395 L96.6664635,21.464 L94.8494635,0.457 C94.8264635,0.198 94.6104635,4.26325641e-14 94.3504635,4.26325641e-14 L6.64946348,4.26325641e-14 C6.37346348,4.26325641e-14 6.14946348,0.223 6.14946348,0.5 C6.14946348,0.776 6.37346348,1 6.64946348,1 L93.8924635,1 L95.6644635,21.479 Z M149.415463,171.608 C149.166463,171.492 148.867463,171.601 148.751463,171.852 C147.431463,174.701 142.808463,176.198 136.386463,175.872 C128.760463,175.477 121.698463,172.654 120.643463,169.579 C120.577463,169.386 120.399463,169.255 120.195463,169.244 C119.981463,169.248 119.801463,169.35 119.715463,169.537 C119.670463,169.634 119.025463,170.95 118.369463,172.291 C117.010463,175.07 116.939463,175.216 116.923463,175.257 C116.823463,175.509 116.943463,175.792 117.192463,175.898 C117.441463,176.006 117.730463,175.891 117.845463,175.644 C117.891463,175.542 118.586463,174.124 119.267463,172.731 C119.688463,171.87 119.979463,171.276 120.180463,170.866 C122.409463,174.236 129.807463,176.533 136.334463,176.871 C136.926463,176.901 137.504463,176.917 138.067463,176.917 C144.015463,176.917 148.290463,175.226 149.659463,172.272 C149.774463,172.022 149.666463,171.724 149.415463,171.608 L149.415463,171.608 Z M128.452463,164.623 C128.515463,164.353 128.348463,164.085 128.079463,164.021 C127.803463,163.961 127.541463,164.126 127.477463,164.394 L127.097463,166.023 C126.627463,168.039 127.219463,170.114 128.681463,171.576 C128.779463,171.674 128.907463,171.722 129.035463,171.722 C129.163463,171.722 129.291463,171.674 129.389463,171.576 C129.584463,171.381 129.584463,171.064 129.389463,170.869 C128.172463,169.653 127.680463,167.927 128.071463,166.251 L128.452463,164.623 Z M79.0644635,164.623 C79.1274635,164.353 78.9604635,164.085 78.6914635,164.021 C78.4154635,163.961 78.1534635,164.126 78.0904635,164.394 L77.7094635,166.023 C77.2394635,168.039 77.8314635,170.114 79.2944635,171.576 C79.3914635,171.674 79.5194635,171.722 79.6474635,171.722 C79.7754635,171.722 79.9034635,171.674 80.0014635,171.576 C80.1964635,171.381 80.1964635,171.064 80.0014635,170.869 C78.7844635,169.653 78.2924635,167.927 78.6834635,166.251 L79.0644635,164.623 Z" id="Fill-9" fill="#000000"/></g></g></g><g id="Upper Body" transform="translate(8.000000, 265.000000) scale(1 1)"><g id="Upper Body/Working" stroke="none" stroke-width="1" fill="none" fill-rule="evenodd"><path d="M309.7378,252.8214 C308.6218,256.0324 300.0308,257.0394 293.4438,257.3364 C293.9308,241.0084 294.5558,225.9074 294.5558,225.9074 C294.5558,225.9074 311.5788,247.5314 309.7378,252.8214 M198.2368,241.5414 C203.6998,234.0044 212.6638,228.2084 212.6638,228.2084 C212.6638,228.2084 211.9008,235.3924 210.7778,245.0494 C203.5618,245.9244 194.8878,246.1614 198.2368,241.5414 M262.3508,184.2714 L251.3088,207.5054 L237.2768,184.7314 C237.2768,184.7314 229.8218,186.0084 219.6578,190.3464 L216.2998,191.8504 C203.0168,198.0834 186.3378,209.3414 175.3448,229.0614 C154.4878,266.4794 182.2178,277.9274 206.5728,277.8094 C206.0588,281.2844 205.5528,284.4534 205.0718,287.0964 C201.8518,304.8094 205.0718,305.5004 205.0718,305.5004 L292.9458,305.5004 C292.9458,305.5004 299.9722,306.397312 298.8222,297.195312 C298.5632,295.122312 298.7792,293.1504 298.8222,287.0964 C338.789062,291.005859 334.2758,259.1564 334.2758,259.1564 C325.5428,184.2714 262.3508,184.2714 262.3508,184.2714 Z" id="Sweater" fill="#a7acea"/><polygon id="Laptop" fill="#eeeffb" points="295.9927 215.0607 282.0797 252.2737 282.0207 252.2587 243.4967 252.2587 243.4967 253.2587 279.3647 259.5367 334.0617 259.5367 354.1477 215.0607"/><path d="M299.4468,259.5363 L278.9688,259.5363 L253.9818,255.1633 C262.2028,265.1363 276.6118,262.4843 276.6118,262.4843 C284.3618,268.7093 291.7418,274.2273 298.2168,278.0773 C298.6418,267.4183 299.5398,262.8073 299.4468,259.5363 L299.4468,259.5363 Z M275.9208,251.8843 C276.7008,251.9283 277.0218,250.9053 276.3588,250.4923 C274.3818,249.2623 271.2918,247.4883 267.6068,245.8423 C269.9868,245.8443 271.4088,245.6063 270.2888,244.8863 C265.6968,241.9293 251.0988,241.5413 251.0988,241.5413 C251.0658,241.5513 251.0408,241.5603 251.0088,241.5703 C250.0518,241.5433 249.0968,241.5463 248.1508,241.6213 C233.7388,242.7753 218.7178,247.9923 218.7178,247.9923 L217.7858,267.6603 C217.7858,267.6603 243.5718,253.5813 249.8138,252.0543 C254.6988,250.8573 269.6488,251.5333 275.9208,251.8843 L275.9208,251.8843 Z M262.3508,184.2713 L257.350561,182.2013 L257.350561,172.9993 L243.549561,172.9993 L243.549561,182.6613 L237.2768,184.7313 L251.3088,207.5053 L262.3508,184.2713 Z" id="Skin" fill="#f7d0d1"/><path d="M294.6851,287.8634 C294.5541,287.8634 294.4221,287.8494 294.2891,287.8234 C293.7061,287.7094 293.2561,287.3954 292.9531,286.8934 C291.8441,285.0614 293.0251,281.0724 293.9731,277.8664 C294.1291,277.3404 294.2751,276.8484 294.3941,276.4144 C294.4671,276.1474 294.7451,275.9934 295.0091,276.0644 C295.2761,276.1384 295.4321,276.4144 295.3591,276.6794 C295.2371,277.1204 295.0901,277.6174 294.9321,278.1504 C294.1341,280.8464 292.9281,284.9224 293.8081,286.3764 C293.9641,286.6344 294.1791,286.7824 294.4821,286.8424 C294.7971,286.9014 295.0791,286.8234 295.3711,286.5864 C297.6491,284.7334 299.0991,274.7884 299.2501,259.9824 C299.2531,259.7084 299.4771,259.4874 299.7501,259.4874 L299.7551,259.4874 C300.0321,259.4904 300.2531,259.7164 300.25013,259.9924 C300.1591,268.9984 299.4841,284.5294 296.0011,287.3624 C295.5911,287.6954 295.1501,287.8634 294.6851,287.8634" id="Fill-9" fill="#000000"/><path d="M299.2779,287.8341 C298.1339,287.8341 296.9589,287.8181 295.7519,287.7871 C295.4749,287.7791 295.2569,287.5501 295.263736,287.2741 C295.2719,286.9991 295.5159,286.7791 295.7769,286.7871 C306.6269,287.0711 314.8199,286.0821 320.1729,283.8541 C320.4279,283.7521 320.7199,283.8681 320.8269,284.1231 C320.9319,284.3781 320.8119,284.6711 320.5569,284.7771 C315.6749,286.8091 308.5279,287.8341 299.2779,287.8341" id="Fill-11" fill="#000000"/><path d="M280.9185,258.6349 C280.8915,258.6349 280.8625,258.6329 280.8355,258.6279 L246.6335,252.8529 C246.3605,252.8069 246.1775,252.5489 246.2235,252.2769 C246.2695,252.0039 246.5375,251.8229 246.7995,251.8659 L280.5895,257.5729 L296.0345,214.5349 C296.1065,214.3369 296.2945,214.2039 296.5055,214.2039 L354.6605,214.2039 C354.8305,214.2039 354.9885,214.2899 355.0805,214.4329 C355.1725,214.5749 355.1865,214.7549 355.1165,214.9099 L339.8015,248.8239 C339.6875,249.0759 339.3915,249.1869 339.1395,249.0739 C338.8885,248.9599 338.7755,248.6639 338.8895,248.4119 L353.8865,215.2039 L296.8565,215.2039 L281.3895,258.3039 C281.3165,258.5049 281.1265,258.6349 280.9185,258.6349" id="Fill-13" fill="#000000"/><path d="M237.2368,257.8361 C237.0728,257.8361 236.9108,257.7551 236.8158,257.6061 C236.6668,257.3731 236.7348,257.0641 236.9668,256.9151 C241.6468,253.9221 249.3488,251.6681 249.6748,251.5731 C254.6538,250.3561 269.7068,251.0361 275.9488,251.3851 C276.1248,251.3931 276.1828,251.2791 276.2038,251.2101 C276.2218,251.1531 276.2468,251.0121 276.0938,250.9171 C271.3698,247.9791 259.1948,241.2471 248.1908,242.1201 C248.0638,242.1331 234.4678,243.5121 225.6658,246.3191 C225.3988,246.4011 225.1208,246.2571 225.0368,245.9951 C224.9528,245.7321 225.0978,245.4501 225.3608,245.3661 C234.2648,242.5261 247.9648,241.1391 248.1008,241.1251 C259.4268,240.2181 271.8138,247.0771 276.6228,250.0671 C277.1188,250.3761 277.3328,250.9561 277.1568,251.5121 C276.9818,252.0661 276.4608,252.4251 275.8918,252.3831 C269.6938,252.0371 254.7578,251.3581 249.9328,252.5391 C249.8748,252.5571 242.0628,254.8431 237.5068,257.7571 C237.4228,257.8111 237.3298,257.8361 237.2368,257.8361" id="Fill-15" fill="#000000"/><path d="M273.6284,252.0822 C273.5004,252.0822 273.3724,252.0332 273.2744,251.9362 C267.0384,245.7022 256.7364,245.6232 256.6334,245.6232 C256.3574,245.6232 256.1334,245.3992 256.1334,245.1232 C256.1334,244.8472 256.3574,244.6232 256.6334,244.6232 C257.0714,244.6232 267.4474,244.6972 273.9824,251.2282 C274.1774,251.4242 274.1774,251.7402 273.9824,251.9362 C273.8844,252.0332 273.7564,252.0822 273.6284,252.0822" id="Fill-17" fill="#000000"/><path d="M269.5611,252.0822 C269.3741,252.0822 269.1951,251.9772 269.1091,251.7962 C267.6761,248.7742 259.3251,248.3882 256.2291,248.5042 C255.9631,248.5062 255.7221,248.2972 255.7111,248.0212 C255.7021,247.7452 255.9171,247.5142 256.1941,247.5042 C256.6761,247.4912 268.0061,247.1362 270.0131,251.3682 C270.1311,251.6172 270.0251,251.9152 269.7751,252.0342 C269.7071,252.0662 269.6331,252.0822 269.5611,252.0822" id="Fill-19" fill="#000000"/><path d="M267.6504,246.3431 C267.3274,246.3361 267.1194,246.1281 267.1194,245.8431 C267.1194,245.5661 267.3434,245.3431 267.6194,245.3431 L267.6474,245.3431 C268.8494,245.3431 269.5104,245.2771 269.8694,245.2141 C265.2834,242.4491 251.2294,242.0451 251.0854,242.0411 C250.8104,242.0331 250.5924,241.8041 250.599236,241.5271 C250.6074,241.2561 250.8284,241.0411 251.0994,241.0411 L251.1124,241.0411 C251.7144,241.0581 265.9034,241.4671 270.5594,244.4661 C271.0614,244.7891 271.2604,245.1411 271.1504,245.5131 C270.9964,246.0381 270.3724,246.3431 267.6504,246.3431 L267.6504,246.3431 Z" id="Fill-21" fill="#000000"/><path d="M210.7788,245.549 C210.7628,245.549 210.7488,245.548 210.7338,245.547 C210.4588,245.523 210.2558,245.28 210.2798,245.005 C212.1458,223.895 213.3678,217.834 213.3808,217.776 C213.4348,217.504 213.7038,217.324 213.9698,217.387 C214.2408,217.443 214.4148,217.706 214.3588,217.977 C214.3468,218.035 213.1348,224.07 211.2758,245.093 C211.2528,245.353 211.0348,245.549 210.7788,245.549" id="Fill-23" fill="#000000"/><path d="M220.8765,277.1867 C220.6475,277.1867 220.4245,277.1407 220.2075,277.0467 C215.7955,275.1547 217.5815,251.0167 217.9825,246.2157 L206.3075,246.3427 C194.0445,246.4947 186.5905,242.1567 186.2765,241.9717 C186.0395,241.8327 185.9605,241.5267 186.1005,241.2887 C186.2385,241.0487 186.5465,240.9707 186.7835,241.1097 C186.8575,241.1547 194.4095,245.4817 206.2955,245.3427 L218.5225,245.2097 C218.6715,245.2227 218.7995,245.2667 218.8955,245.3707 C218.9905,245.4737 219.0385,245.6137 219.0255,245.7537 C218.0545,256.8197 217.6225,274.8507 220.6025,276.1277 C221.2015,276.3907 222.0085,275.6777 222.5745,275.0347 C224.2705,273.1147 225.0635,269.4957 224.9355,264.2787 C224.9285,264.0017 225.1475,263.7727 225.4225,263.7657 L225.4355,263.7657 C225.7055,263.7657 225.9285,263.9817 225.9355,264.2527 C226.0695,269.7307 225.1915,273.5807 223.3245,275.6967 C222.4495,276.6877 221.6295,277.1867 220.8765,277.1867" id="Fill-25" fill="#000000"/><path d="M207.5181,278.0636 C199.2581,278.0636 192.8911,276.9076 188.5181,275.7126 C181.4761,273.7886 178.0051,271.4086 177.8621,271.3076 C177.6351,271.1506 177.5791,270.8386 177.7371,270.6126 C177.8931,270.3866 178.2061,270.3316 178.4321,270.4866 C178.5701,270.5826 192.4941,279.9596 220.5441,276.1546 C220.8071,276.1046 221.0691,276.3076 221.1071,276.5826 C221.1441,276.8556 220.9531,277.1076 220.6791,277.1446 C215.8661,277.7986 211.4741,278.0636 207.5181,278.0636" id="Fill-27" fill="#000000"/><path d="M272.3277,263.2902 C267.7267,263.2902 260.4197,262.3302 255.0207,257.0472 C254.8237,256.8532 254.8197,256.5372 255.0137,256.3402 C255.2057,256.1422 255.5217,256.1402 255.7207,256.3322 C263.7847,264.2242 276.3967,262.0182 276.5207,261.9922 C276.8037,261.9452 277.0537,262.1232 277.1027,262.3942 C277.1537,262.6652 276.9737,262.9262 276.7027,262.9762 C276.6547,262.9842 274.9207,263.2902 272.3277,263.2902" id="Fill-29" fill="#000000"/><path d="M251.3091,208.005 C251.1361,208.005 250.9751,207.915 250.8831,207.768 L236.8511,184.994 C236.7061,184.759 236.7801,184.45 237.0141,184.306 C237.2491,184.163 237.5571,184.233 237.7031,184.469 L251.2521,206.46 L261.9001,184.057 C262.0181,183.807 262.3181,183.701 262.5661,183.82 C262.8151,183.939 262.9211,184.236 262.8021,184.486 L251.7601,207.72 C251.6821,207.885 251.5191,207.994 251.3361,208.004 C251.3271,208.005 251.3181,208.005 251.3091,208.005" id="Fill-31" fill="#000000"/></g></g><g id="Hair" transform="translate(104.000000, 285.000000) scale(1 1)"><g id="Hair/Wavy Pompadour" stroke="none" stroke-width="1" fill="none" fill-rule="evenodd"><g id="Head" transform="translate(132.000000, 111.000000)"><path d="M44.1789,24.3663 C44.5879,35.6913 33.3599,45.0883 22.4569,45.0883 C11.5539,45.0883 0.4939,36.9643 0.0189,25.3903 C-0.4461,14.0673 7.7449,1.3583 15.9329,0.2613 C32.6079,-1.9747 43.6789,10.5083 44.1789,24.3663" id="Fill-1" fill="#000000"/><path d="M22.4567,44.088 C12.4757,44.088 1.4787,36.559 1.0177,25.35 C0.5797,14.678 8.3147,2.291 16.0657,1.252 C17.3127,1.085 18.5577,1 19.7657,1 C34.4247,1 42.7697,13.058 43.1797,24.402 C43.3447,28.984 41.4627,33.553 37.8807,37.268 C33.7607,41.538 27.9947,44.088 22.4567,44.088" id="Fill-4" fill="#f7d0d1"/></g><path d="M183.4079,116.857 C197.1889,106.836 172.3719,110.33 169.4189,112.661 C169.4189,112.661 189.1589,96.341 177.9679,92.3 C166.7779,88.259 159.7819,104.423 159.7819,104.423 C159.7819,104.423 170.0409,83.284 156.3639,88.259 C142.6859,93.232 144.3949,108.931 144.3949,108.931 C144.3949,108.931 143.3069,89.191 138.1779,94.32 C133.0489,99.449 130.2509,111.263 131.8049,118.723 C131.8049,118.723 124.3439,112.661 123.2559,121.21 C121.9489,131.476 123.2979,144.488922 138.1779,149.483922 C138.1779,149.483922 131.7379,135.875 136.7109,135.148 C136.7109,135.148 139.0429,134.732 139.5089,138.463 L140.3739,138.618 C140.3739,138.618 143.3539,129.284 141.8029,123.5 C141.8029,123.5 170.5939,126.177 183.4079,116.857 Z" id="Hair" fill="#1d2157"/><path d="M141.673398,123.017062 C141.940118,122.94554 142.214316,123.103779 142.285838,123.370498 C142.699298,124.912377 142.825396,126.758795 142.709338,128.847858 C142.598491,130.843137 142.273218,132.971335 141.800414,135.122155 C141.634602,135.876445 141.459317,136.593285 141.282068,137.259922 L141.091511,137.95516 L140.906034,138.589609 L140.850214,138.770069 C140.783482,138.979089 140.590309,139.11657 140.377704,139.118044 L140.285709,139.110161 L139.420709,138.955161 C139.205206,138.916545 139.039889,138.742216 139.012755,138.524968 C138.844648,137.179032 138.425665,136.36536 137.855281,135.948883 C137.536556,135.716159 137.208209,135.630933 136.930141,135.63279 L136.783226,135.642741 C135.120396,135.885829 134.912377,138.244238 135.982011,142.169401 C136.247835,143.144875 136.58306,144.177811 136.971681,145.243623 C137.262189,146.040353 137.569464,146.82034 137.880058,147.563443 L138.213639,148.34487 L138.401821,148.770891 L138.62985,149.270051 C138.747968,149.519656 138.641377,149.817755 138.391771,149.935873 C138.142166,150.053991 137.844068,149.947399 137.72595,149.697794 L137.395341,148.968644 L137.194907,148.508941 C136.798562,147.588244 136.402287,146.601202 136.032187,145.586186 C135.634586,144.49575 135.290933,143.436844 135.017194,142.432321 L134.939623,142.142167 L134.797269,141.575417 C134.730405,141.296621 134.670065,141.024754 134.616477,140.760087 L134.518375,140.240434 C133.969789,137.096091 134.471941,135.07442 136.458739,134.683854 L136.678718,134.647869 L136.717511,134.643429 C137.241545,134.59251 137.857609,134.712378 138.444983,135.141261 C139.155154,135.659808 139.663724,136.539882 139.913841,137.825229 L139.95,138.033 L140.024,138.047 L140.185277,137.482954 C140.402846,136.698728 140.620547,135.831769 140.823734,134.907457 C141.285873,132.80515 141.603347,130.727984 141.710878,128.792389 C141.821525,126.800708 141.702337,125.055458 141.319962,123.629502 C141.24844,123.362782 141.406679,123.088584 141.673398,123.017062 Z" id="Hair" fill="#000000" fill-rule="nonzero"/><path d="M138.5317,94.6742 C139.0687,94.1372 139.5527,93.9042 139.9537,93.9852 C140.5157,94.0932 141.0887,94.8002 141.6107,96.0272 C141.7187,96.2822 142.0127,96.4002 142.2657,96.2922 C142.5197,96.1842 142.6387,95.8902 142.5307,95.6362 C141.8547,94.0452 141.0737,93.1832 140.1437,93.0032 C139.3887,92.8572 138.6097,93.1812 137.8247,93.9672 C132.7627,99.0282 129.6607,110.8772 131.3157,118.8242 C131.3647,119.0602 131.5727,119.2222 131.8037,119.2222 C131.8377,119.2222 131.8727,119.2192 131.9067,119.2122 C132.1767,119.1562 132.3507,118.8902 132.2937,118.6212 C130.7247,111.0872 133.7557,99.4492 138.5317,94.6742 M144.3937,109.4302 C144.4127,109.4302 144.4297,109.4292 144.4487,109.4272 C144.7227,109.3972 144.9207,109.1512 144.8917,108.8772 C144.8747,108.7232 143.3927,93.5072 156.5347,88.7282 C159.6317,87.6022 161.6287,87.7872 162.4617,89.2852 C162.5957,89.5262 162.9017,89.6122 163.1417,89.4782 C163.3827,89.3442 163.4697,89.0402 163.3347,88.7992 C162.2277,86.8082 159.8237,86.4672 156.1927,87.7892 C142.3067,92.8382 143.8797,108.8242 143.8977,108.9842 C143.9257,109.2412 144.1417,109.4302 144.3937,109.4302 M157.1977,112.3012 C157.2327,112.3072 157.2667,112.3112 157.3017,112.3112 C157.5327,112.3112 157.7407,112.1502 157.7897,111.9152 C157.8197,111.7742 160.8817,97.8102 170.3437,93.0682 C170.5907,92.9442 170.6907,92.6432 170.5677,92.3972 C170.4437,92.1492 170.1417,92.0512 169.8967,92.1742 C159.9997,97.1342 156.9377,111.1152 156.8117,111.7082 C156.7547,111.9782 156.9267,112.2432 157.1977,112.3012" id="Fill-8" fill="#000000"/><path d="M183.143675,116.432518 C183.37811,116.28659 183.686455,116.35834 183.832382,116.592775 C183.97831,116.82721 183.90656,117.135555 183.672125,117.281482 C173.865568,123.385712 159.892877,125.616708 141.758446,123.99802 C141.483398,123.973469 141.280329,123.730595 141.30488,123.455546 C141.329431,123.180498 141.572305,122.977429 141.847354,123.00198 C159.784216,124.603033 173.548191,122.405363 183.143675,116.432518 Z" id="Path-6" fill="#000000" fill-rule="nonzero"/></g></g><g id="Expression" transform="translate(201.000000, 388.000000) scale(1 1)"><g id="Expression/Super Happy" stroke="none" stroke-width="1" fill="none" fill-rule="evenodd"><path d="M58.6213,46.8368 C58.6213,46.8368 62.3003,43.8938 65.2423,46.8368 C65.2423,46.8368 62.3193,48.4838 58.6213,46.8368" id="Tougue" fill="#e87273"/><path d="M66.1809,45.4442 C65.2939,46.5242 63.8169,47.0722 61.7889,47.0722 C60.0339,47.0722 58.7339,46.5792 57.9269,45.6072 C56.8729,44.3382 56.8919,42.5372 56.9619,41.7392 L67.1399,41.7392 C67.2079,42.5002 67.2149,44.1842 66.1809,45.4442 M67.5779,40.7392 L56.5219,40.7392 C56.2819,40.7392 56.0759,40.9102 56.0309,41.1452 C56.0069,41.2692 55.4699,44.2062 57.1529,46.2402 C58.1589,47.4562 59.7179,48.0722 61.7889,48.0722 C64.1299,48.0722 65.8679,47.4012 66.9529,46.0792 C68.6209,44.0482 68.0919,41.2592 68.0689,41.1412 C68.0229,40.9082 67.8169,40.7392 67.5779,40.7392 M73.0809,30.5642 C71.8679,29.4832 68.9119,28.0932 66.4229,30.5842 C66.2279,30.7792 66.2279,31.0952 66.4229,31.2912 C66.5209,31.3882 66.6489,31.4372 66.7769,31.4372 C66.9049,31.4372 67.0329,31.3882 67.1299,31.2912 C69.5719,28.8552 72.3009,31.2102 72.4159,31.3112 C72.6219,31.4932 72.9389,31.4742 73.1219,31.2682 C73.3049,31.0622 73.2859,30.7472 73.0809,30.5642 M57.3719,31.2912 C57.5679,31.0952 57.5679,30.7792 57.3719,30.5842 C54.8819,28.0932 51.9289,29.4832 50.7149,30.5642 C50.5089,30.7482 50.4919,31.0642 50.6749,31.2702 C50.7739,31.3812 50.9099,31.4372 51.0479,31.4372 C51.1659,31.4372 51.2849,31.3952 51.3809,31.3102 C51.4949,31.2092 54.2129,28.8382 56.6649,31.2912 C56.8609,31.4862 57.1769,31.4862 57.3719,31.2912 M61.7889,31.3972 C62.9419,32.9372 64.8449,35.9742 64.1499,37.4382 C63.8609,38.0482 63.0669,38.3562 61.7889,38.3562 C60.5119,38.3562 59.7179,38.0482 59.4289,37.4382 C58.7339,35.9742 60.6369,32.9372 61.7889,31.3972 M61.7889,39.3562 C63.4869,39.3562 64.5839,38.8552 65.0529,37.8672 C66.2429,35.3592 62.5959,30.7812 62.1759,30.2672 C61.9869,30.0352 61.5919,30.0352 61.4029,30.2672 C60.9829,30.7812 57.3359,35.3592 58.5259,37.8672 C58.9939,38.8552 60.0919,39.3562 61.7889,39.3562 M67.5779,25.0002 C70.1009,25.0002 71.5799,26.4292 71.5949,26.4432 C71.6929,26.5402 71.8199,26.5882 71.9479,26.5882 C72.0759,26.5882 72.2039,26.5392 72.3019,26.4402 C72.4949,26.2452 72.4949,25.9292 72.3009,25.7352 C72.2299,25.6642 70.5319,24.0002 67.5779,24.0002 C67.3019,24.0002 67.0779,24.2232 67.0779,24.5002 C67.0779,24.7762 67.3019,25.0002 67.5779,25.0002 M51.7199,26.5882 C51.8479,26.5882 51.9749,26.5402 52.0729,26.4432 C52.0869,26.4292 53.5669,25.0002 56.0889,25.0002 C56.3659,25.0002 56.5889,24.7762 56.5889,24.5002 C56.5889,24.2232 56.3659,24.0002 56.0889,24.0002 C53.1359,24.0002 51.4379,25.6642 51.3669,25.7352 C51.1719,25.9292 51.1719,26.2452 51.3659,26.4402 C51.4629,26.5392 51.5919,26.5882 51.7199,26.5882" id="Fill-5" fill="#000000"/><path d="M52.4996066,34 C54.4327301,34 56,34.8954741 56,36 C56,37.1045259 54.4327301,38 52.4996066,38 C50.5664831,38 49,37.1045259 49,36 C49,34.8954741 50.5664831,34 52.4996066,34 Z M70.5,34 C72.4329063,34 74,34.8954741 74,36 C74,37.1045259 72.4329063,38 70.5,38 C68.5670937,38 67,37.1045259 67,36 C67,34.8954741 68.5670937,34 70.5,34 Z" id="Cheeks" fill="#ef9e9f"/></g></g><g id="Facial Hair" transform="translate(201.000000, 387.000000) scale(1 1)" fill="#000000"><g id="Facial Hair/None" stroke="none" stroke-width="1" fill="none" fill-rule="evenodd" fill-opacity="0"/></g><g id="Accesories" transform="translate(104.500000, 286.000000) scale(1 1)"><g id="Accesories/None" stroke="none" stroke-width="1" fill="none" fill-rule="evenodd" fill-opacity="0"/></g></g></g><g id="Table top" transform="translate(152.000000, 185.000000) scale(1 1)"><g id="Table top/Lamp" stroke="none" stroke-width="1" fill="none" fill-rule="evenodd"><g id="Desktop-Lamp" transform="translate(51.000000, 47.000000)"><g id="Desk-Top"><path d="M89.0718,59.174 C89.0718,62.675 86.2338,65.513 82.7328,65.513 C79.2318,65.513 76.3938,62.675 76.3938,59.174 C76.3938,55.673 79.2318,52.835 82.7328,52.835 C86.2338,52.835 89.0718,55.673 89.0718,59.174" id="Fill-154" fill="#f9dbdb"/><path d="M55.8238,59.174 L106.7708,59.174 C106.7708,46.217 96.8208,35.59 84.1448,34.502 C84.1808,34.278 84.2138,34.053 84.2138,33.819 C84.2138,31.442 82.2868,29.515 79.9098,29.515 C79.6308,29.515 79.3588,29.546 79.0948,29.597 L51.2398,8.475 C51.2888,8.129 51.3228,7.778 51.3228,7.419 C51.3228,3.321 48.0018,0 43.9048,0 C39.8078,0 36.4868,3.321 36.4868,7.419 C36.4868,10.078 37.8908,12.404 39.9938,13.714 L22.2258,103.729 L5.8148,103.729 C2.9148,103.729 0.5638,106.079 0.5638,108.98 L48.8558,108.98 C48.8558,106.079 46.5048,103.729 43.6048,103.729 L26.9998,103.729 L44.5538,14.804 C46.2838,14.653 47.8408,13.91 49.0258,12.778 L75.6888,32.996 C75.6368,33.263 75.6058,33.537 75.6058,33.819 C75.6058,34.193 75.6678,34.548 75.7578,34.893 C64.3948,37.144 55.8238,47.151 55.8238,59.174" id="Lamp" fill="#e87273"/><path d="M36.147,103.1105 L5.815,103.1105 C5.474,103.1105 5.197,103.3865 5.197,103.7285 C5.197,104.0705 5.474,104.3465 5.815,104.3465 L36.147,104.3465 C36.488,104.3465 36.765,104.0705 36.765,103.7285 C36.765,103.3865 36.488,103.1105 36.147,103.1105 M106.771,58.6285 L56.376,58.6285 C56.626,47.4965 64.52,37.9155 75.388,35.5325 C76.083,37.3605 77.84,38.6695 79.91,38.6695 C80.211,38.6695 80.456,38.4245 80.456,38.1235 C80.456,37.8215 80.211,37.5775 79.91,37.5775 C77.837,37.5775 76.151,35.8905 76.151,33.8185 C76.151,31.7465 77.837,30.0605 79.91,30.0605 C80.211,30.0605 80.456,29.8165 80.456,29.5145 C80.456,29.2135 80.211,28.9685 79.91,28.9685 C77.235,28.9685 75.06,31.1445 75.06,33.8185 C75.06,34.0435 75.096,34.2575 75.126,34.4745 C63.598,37.0145 55.278,47.3085 55.278,59.1735 C55.278,59.4755 55.522,59.7195 55.824,59.7195 L106.771,59.7195 C107.073,59.7195 107.317,59.4755 107.317,59.1735 C107.317,58.8725 107.073,58.6285 106.771,58.6285 M51.323,6.8735 C51.021,6.8735 50.777,7.1175 50.777,7.4195 C50.777,11.2085 47.694,14.2915 43.905,14.2915 C40.115,14.2915 37.032,11.2085 37.032,7.4195 C37.032,7.1175 36.788,6.8735 36.486,6.8735 C36.185,6.8735 35.94,7.1175 35.94,7.4195 C35.94,11.8105 39.513,15.3825 43.905,15.3825 C48.296,15.3825 51.869,11.8105 51.869,7.4195 C51.869,7.1175 51.625,6.8735 51.323,6.8735" id="Fill-156" fill="#000000"/></g></g></g></g><g id="Pet" transform="translate(151.254800, 401.770000) scale(1 1)"><g id="Pet/Cat" stroke="none" stroke-width="1" fill="none" fill-rule="evenodd"><g id="Cat" transform="translate(47.000000, 72.000000)"><g><path d="M107.3156,26.6968 C105.7676,19.8878 101.8626,13.0238 93.6096,7.7858 C61.8106,-12.3982 40.8946,15.4808 40.8946,15.4808 L40.8946,15.4818 C37.0586,13.4508 32.4416,12.2638 27.4716,12.2638 C14.1606,12.2638 3.3706,20.7698 3.3706,31.2608 C3.3706,38.6148 7.7496,44.5908 15.5026,47.7478 C14.3166,48.6748 13.3526,50.4918 13.3526,52.0138 C13.3526,54.9748 17.8096,57.3758 23.3066,57.3758 C28.8046,57.3758 33.2616,54.9748 33.2616,52.0138 L33.4806,52.0138 C34.4466,54.6598 38.5596,55.8958 42.9256,54.7768 C45.0496,54.2318 46.8486,53.2238 48.0936,52.0138 L54.2916,52.0138 C54.8736,52.8738 55.8656,53.4148 56.9496,53.4148 L85.6466,53.4148 C99.7166,53.4148 110.4336,40.4178 107.3156,26.6968" id="Cat-Hair" fill="#eeeffb"/><path d="M107.815455,35.4419 C107.187677,38.4060113 107.858679,40.0182569 105.020461,41.9415658 C105.202461,41.9765658 116.969421,41.4419 107.858679,41.4419 L114.5002,41.4419 C115.5222,41.4419 116.3542,42.2729 116.3542,43.2959 C116.3542,44.2949 115.5722,45.1079 114.5742,45.1479 L96.5712,45.7189 C89.0202,46.0249 81.5172,47.2739 74.2722,49.4329 C72.6852,49.9059 71.7812,51.5769 72.2542,53.1649 C72.6422,54.4659 73.8352,55.3089 75.1282,55.3089 C75.4112,55.3089 75.7002,55.2679 75.9852,55.1829 C82.7532,53.1669 89.7612,51.9999 96.8142,51.7139 L114.8172,51.1429 C119.0432,50.9719 122.3542,47.5249 122.3542,43.2959 C122.3542,38.9649 118.8302,35.4419 114.5002,35.4419 L107.815455,35.4419 Z" id="Fill-5" fill="#000000"/><path d="M34.0158,35.2671 C33.4808,35.2671 32.9438,35.2051 32.4118,35.0781 C32.1418,35.0141 31.9758,34.7451 32.0398,34.4761 C32.1038,34.2061 32.3768,34.0351 32.6418,34.1051 C33.8678,34.3961 35.1198,34.2931 36.2708,33.8111 C37.4208,33.3271 38.3708,32.5021 39.0198,31.4261 C39.1638,31.1891 39.4728,31.1171 39.7058,31.2551 C39.9428,31.3981 40.0188,31.7051 39.8768,31.9421 C39.1188,33.2011 38.0048,34.1651 36.6588,34.7331 C35.8118,35.0881 34.9178,35.2671 34.0158,35.2671" id="Fill-3" fill="#000000"/><path d="M47.9143,33.5542 L34.9083,40.2442 C34.6623,40.3702 34.5653,40.6722 34.6923,40.9172 C34.7813,41.0902 34.9563,41.1892 35.1373,41.1892 C35.2143,41.1892 35.2923,41.1712 35.3653,41.1332 L48.3713,34.4432 C48.6173,34.3172 48.7143,34.0152 48.5873,33.7702 C48.4603,33.5242 48.1603,33.4272 47.9143,33.5542" id="Fill-8" fill="#000000"/><path d="M49.716,25.0835 C50.593,27.0165 51.074,29.0955 51.074,31.2615 C51.074,33.3775 50.612,35.4095 49.774,37.3055 C49.772,37.2975 49.774,37.2895 49.771,37.2815 C49.684,37.0205 49.402,36.8765 49.138,36.9675 L35.431,41.5665 C35.169,41.6545 35.028,41.9375 35.116,42.1995 C35.186,42.4085 35.381,42.5405 35.59,42.5405 C35.643,42.5405 35.696,42.5325 35.749,42.5145 L49.456,37.9145 C49.474,37.9085 49.486,37.8965 49.502,37.8885 C49.004,38.9005 48.4,39.8725 47.693,40.7905 L35.868,42.6025 C35.596,42.6445 35.408,42.8985 35.45,43.1725 C35.488,43.4195 35.701,43.5965 35.944,43.5965 C35.969,43.5965 35.994,43.5945 36.021,43.5905 L46.715,41.9515 C46.082,42.6485 45.391,43.3095 44.646,43.9305 C44.404,44.1315 44.158,44.3265 43.907,44.5185 C43.764,44.6275 43.619,44.7365 43.472,44.8445 C43.192,45.0475 42.905,45.2435 42.614,45.4355 C42.414,45.5665 42.21,45.6935 42.004,45.8195 C41.792,45.9505 41.577,46.0795 41.36,46.2045 C41.165,46.3155 40.97,46.4265 40.771,46.5325 C40.522,46.6665 40.267,46.7945 40.011,46.9205 C39.732,47.0595 39.448,47.1915 39.161,47.3195 C38.932,47.4235 38.701,47.5245 38.467,47.6215 C38.265,47.7055 38.061,47.7875 37.855,47.8675 C37.518,47.9965 37.178,48.1205 36.833,48.2375 C36.642,48.3025 36.449,48.3635 36.256,48.4245 C35.924,48.5285 35.59,48.6285 35.251,48.7215 C35.091,48.7655 34.931,48.8085 34.769,48.8495 C34.306,48.9675 33.84,49.0785 33.366,49.1745 C32.89,49.2705 32.404,49.3525 31.916,49.4245 C30.54,49.6305 29.156,49.7375 27.78,49.7525 C27.75,49.7525 27.719,49.7535 27.689,49.7545 C27.025,49.7585 26.363,49.7395 25.705,49.7015 C25.65,49.6975 25.594,49.6945 25.539,49.6905 C24.874,49.6485 24.214,49.5855 23.559,49.4995 C23.543,49.4975 23.527,49.4945 23.51,49.4925 C23.215,49.4535 22.926,49.3935 22.633,49.3455 L27.332,46.8055 C27.295,46.8535 27.263,46.9065 27.244,46.9685 C27.162,47.2315 27.311,47.5125 27.574,47.5935 C27.913,47.6975 28.278,47.7505 28.652,47.7505 C29.077,47.7505 29.517,47.6825 29.945,47.5475 C30.784,47.2825 31.502,46.7895 31.966,46.1585 C32.13,45.9365 32.241,45.7035 32.33,45.4695 C32.832,45.8115 33.483,46.0055 34.193,46.0055 C34.608,46.0055 35.041,45.9405 35.474,45.8045 C36.278,45.5515 36.978,45.0825 37.444,44.4845 C37.613,44.2665 37.574,43.9525 37.357,43.7825 C37.137,43.6125 36.824,43.6515 36.654,43.8695 C36.313,44.3095 35.786,44.6575 35.173,44.8515 C33.934,45.2385 32.662,44.8625 32.4,44.0285 L31.44,40.9835 C31.357,40.7215 31.076,40.5755 30.813,40.6575 C30.549,40.7405 30.404,41.0215 30.487,41.2845 L31.445,44.3275 C31.567,44.7115 31.465,45.1505 31.16,45.5655 C30.82,46.0275 30.282,46.3935 29.645,46.5945 C29.031,46.7855 28.402,46.8025 27.869,46.6385 C27.806,46.6175 27.742,46.6125 27.68,46.6175 L28.8,46.0125 C29.043,45.8815 29.134,45.5775 29.002,45.3355 C28.871,45.0915 28.566,45.0015 28.325,45.1335 L21.075,49.0515 C20.176,48.8525 19.295,48.6065 18.431,48.3245 L28.367,44.9905 C28.629,44.9025 28.77,44.6195 28.682,44.3575 C28.595,44.0965 28.311,43.9525 28.049,44.0435 L16.912,47.7805 C16.547,47.6375 16.179,47.4975 15.823,47.3385 C15.421,47.1585 15.05,46.9445 14.662,46.7485 C16.439,46.6995 18.95,46.0725 21.39,44.7805 L27.841,43.6575 C28.112,43.6105 28.295,43.3525 28.247,43.0795 C28.2,42.8065 27.934,42.6185 27.669,42.6735 L23.618,43.3785 C26.361,41.3455 28.641,38.3415 29.094,34.2145 C30.053,25.4945 46.462,25.0035 49.716,25.0835 M23.307,56.8755 C18.182,56.8755 13.853,54.6485 13.853,52.0145 C13.853,51.0515 14.058,50.2595 14.428,49.5935 C14.454,49.5985 14.475,49.6165 14.501,49.6165 C14.554,49.6165 14.608,49.6085 14.66,49.5905 L16.865,48.8505 C16.985,48.8955 17.108,48.9375 17.229,48.9805 C17.353,49.0255 17.476,49.0705 17.6,49.1135 C18.155,49.3085 18.721,49.4855 19.296,49.6465 C19.365,49.6665 19.434,49.6845 19.503,49.7025 C19.585,49.7255 19.666,49.7465 19.748,49.7685 L15.242,52.2035 C14.999,52.3345 14.908,52.6385 15.04,52.8805 C15.13,53.0485 15.302,53.1435 15.48,53.1435 C15.561,53.1435 15.642,53.1235 15.717,53.0825 L21.207,50.1155 C21.928,50.2665 22.661,50.3895 23.406,50.4865 L23.447,50.4925 C24.104,50.5785 24.769,50.6435 25.441,50.6865 C25.496,50.6895 25.551,50.6925 25.607,50.6965 C26.223,50.7325 26.844,50.7585 27.472,50.7585 C28.229,50.7585 28.977,50.7275 29.716,50.6735 C29.731,50.6725 29.745,50.6725 29.76,50.6715 C30.438,50.6215 31.107,50.5475 31.769,50.4545 C31.801,50.4495 31.834,50.4485 31.867,50.4435 C32.461,50.9775 32.762,51.5055 32.762,52.0145 C32.762,54.6485 28.432,56.8755 23.307,56.8755 M16.627,40.8665 C16.666,40.7015 16.768,40.5625 16.911,40.4765 C17.053,40.3895 17.221,40.3665 17.383,40.4045 C18.577,40.6885 19.806,40.5895 20.93,40.1165 C22.058,39.6425 22.988,38.8355 23.621,37.7835 C23.705,37.6415 23.843,37.5395 24.006,37.4985 C24.171,37.4615 24.338,37.4835 24.483,37.5725 C24.774,37.7485 24.869,38.1335 24.692,38.4285 C23.921,39.7095 22.787,40.6915 21.414,41.2695 C20.554,41.6305 19.649,41.8125 18.724,41.8125 C18.177,41.8125 17.627,41.7485 17.09,41.6205 C16.927,41.5815 16.789,41.4805 16.701,41.3385 C16.614,41.1955 16.588,41.0285 16.627,40.8665 M107.803,26.5855 C105.973,18.5335 101.287,12.0665 93.877,7.3635 C69.563,-8.0705 51.364,4.4795 44.036,11.3855 C42.405,11.6615 40.466,12.8585 38.905,14.0165 C35.487,12.5855 31.601,11.7645 27.472,11.7645 C14.351,11.7645 3.598,19.9465 2.907,30.2115 C1.351,30.7685 0.137,31.6005 0.012,32.8535 C-0.18,34.7635 2.06,36.5335 4.313,37.8185 C6.207,42.0055 9.852,45.5355 14.554,47.8455 C13.429,48.8285 12.853,50.2245 12.853,52.0145 C12.853,55.3015 17.445,57.8755 23.307,57.8755 C28.456,57.8755 32.624,55.8885 33.562,53.1775 C34.722,54.7525 37.041,55.6845 39.773,55.6845 C40.822,55.6845 41.93,55.5485 43.05,55.2615 C47.852,54.0295 51.106,50.4805 50.303,47.3515 C50.235,47.0835 49.959,46.9205 49.695,46.9905 C49.427,47.0595 49.266,47.3315 49.334,47.5995 C50,50.1945 47.07,53.1975 42.802,54.2925 C38.535,55.3895 34.521,54.1645 33.855,51.5685 C33.736,51.1035 33.736,50.6075 33.854,50.0955 C33.975,50.0685 34.093,50.0355 34.214,50.0085 C34.526,49.9375 34.835,49.8625 35.141,49.7835 C35.355,49.7285 35.568,49.6725 35.778,49.6115 C36.047,49.5355 36.312,49.4525 36.575,49.3685 C36.984,49.2395 37.387,49.1025 37.785,48.9555 C37.94,48.8985 38.094,48.8445 38.247,48.7845 C38.539,48.6715 38.828,48.5545 39.114,48.4325 C39.2,48.3955 39.284,48.3565 39.368,48.3195 C40.33,47.8975 41.255,47.4265 42.139,46.9045 L42.256,46.8345 C43.144,46.3045 43.987,45.7255 44.784,45.0985 C44.843,45.0525 44.901,45.0065 44.959,44.9595 C45.15,44.8065 45.348,44.6595 45.532,44.5015 C45.55,44.4855 45.559,44.4655 45.574,44.4475 C46.553,43.6045 47.436,42.6915 48.217,41.7225 L50.721,41.3385 C50.993,41.2965 51.181,41.0415 51.139,40.7685 C51.097,40.4955 50.847,40.3125 50.569,40.3505 L49.078,40.5785 C50.987,37.8095 52.074,34.6335 52.074,31.2615 C52.074,26.5505 49.945,22.2315 46.421,18.8585 C47.246,16.2695 47.789,13.1685 46.241,11.8455 C46,11.6385 45.725,11.5025 45.427,11.4205 C46.251,10.6685 47.195,9.8675 48.248,9.0555 C48.985,9.5445 49.852,9.8505 50.803,9.8505 C53.399,9.8505 55.502,7.7465 55.502,5.1505 C55.502,4.9495 55.485,4.7535 55.457,4.5605 C55.487,4.5455 55.515,4.5295 55.545,4.5155 C55.733,4.4245 55.926,4.3355 56.118,4.2465 C58.344,6.9795 62.388,8.8205 67.038,8.8205 C67.362,8.8205 67.683,8.8075 68.001,8.7895 C60.427,11.5905 55.002,18.8635 55.002,27.3995 C55.002,33.6055 57.871,39.3715 62.741,43.1235 L61.531,43.1235 C57.264,43.1235 53.791,46.5965 53.791,50.8645 L53.791,52.0145 C53.791,52.0305 53.799,52.0455 53.801,52.0615 C53.804,52.0945 53.811,52.1255 53.82,52.1575 C53.83,52.1905 53.843,52.2215 53.86,52.2515 C53.867,52.2665 53.868,52.2805 53.877,52.2945 C53.891,52.3145 53.91,52.3285 53.925,52.3495 C53.933,52.3575 53.939,52.3655 53.946,52.3735 C54.64,53.3355 55.749,53.9145 56.949,53.9145 L70.481,53.9145 C70.757,53.9145 70.981,53.6905 70.981,53.4145 C70.981,53.1385 70.757,52.9145 70.481,52.9145 L56.949,52.9145 C56.09,52.9145 55.299,52.5065 54.791,51.8325 L54.791,50.8645 C54.791,47.1475 57.815,44.1235 61.531,44.1235 L64.293,44.1235 C64.296,44.1235 64.298,44.1255 64.3,44.1255 C64.303,44.1255 64.305,44.1235 64.308,44.1235 L68.035,44.1235 C68.312,44.1235 68.535,43.8995 68.535,43.6235 C68.535,43.3475 68.312,43.1235 68.035,43.1235 L64.454,43.1235 C59.16,39.6135 56.002,33.7485 56.002,27.3995 C56.002,17.0035 64.461,8.5445 74.858,8.5445 C78.545,8.5445 82.116,9.6075 85.185,11.6205 C85.415,11.7705 85.725,11.7085 85.877,11.4775 C86.029,11.2455 85.964,10.9365 85.734,10.7845 C82.501,8.6645 78.74,7.5445 74.858,7.5445 C74.321,7.5445 73.795,7.5825 73.27,7.6255 C76.16,6.4305 78.342,4.4275 79.275,2.0365 C79.633,2.1235 79.993,2.2135 80.357,2.3125 C79.993,2.7625 79.786,3.2685 79.786,3.8055 C79.786,5.6565 82.202,7.1585 85.184,7.1585 C86.877,7.1585 88.376,6.6685 89.363,5.9095 C90.369,6.4365 91.388,7.0135 92.418,7.6415 C92.057,7.5685 91.678,7.5195 91.278,7.5195 C89.205,7.5195 87.526,8.5625 87.526,9.8505 C87.526,11.1385 89.205,12.1815 91.278,12.1815 C93.35,12.1815 95.03,11.1385 95.03,9.8505 C95.03,9.6425 94.972,9.4435 94.889,9.2515 C101.173,13.7025 105.189,19.5995 106.828,26.8075 C106.881,27.0395 107.087,27.1965 107.316,27.1965 C107.352,27.1965 107.389,27.1925 107.426,27.1845 C107.695,27.1235 107.864,26.8545 107.803,26.5855" id="Cat-Spots" fill="#000000"/><path d="M32.2316,39.3374 L28.8946,40.3894 C28.2226,40.6014 28.1426,41.5184 28.7666,41.8434 L30.9606,42.9854 C31.3476,43.1874 31.8256,43.0364 32.0266,42.6504 L33.1686,40.4554 C33.4946,39.8314 32.9026,39.1264 32.2316,39.3374 M1.9816,34.4624 C3.3016,36.2334 6.7046,37.6244 7.7506,38.0204 C7.7476,36.7084 7.8896,35.3604 8.1776,34.0044 C5.7916,33.0934 2.9106,34.0524 1.9816,34.4624 M46.0656,13.5764 C45.1146,13.9324 42.3836,15.2604 41.3136,17.5804 C42.4676,18.3494 43.5116,19.2124 44.4256,20.1524 C44.8976,19.1394 46.3596,15.7674 46.0656,13.5764" id="Fill-12" fill="#ef9e9f"/></g></g></g></g></g></svg>