<svg width="185" height="93" viewBox="0 0 185 93" fill="none" xmlns="http://www.w3.org/2000/svg">
<path d="M44.176 92.048C30.4373 92.048 19.728 88.336 12.048 80.912C4.368 73.488 0.528 63.0773 0.528 49.68V0.399994H30.736V48.784C30.736 55.6107 31.9733 60.4747 34.448 63.376C36.9227 66.192 40.2507 67.6 44.432 67.6C48.6987 67.6 52.0267 66.192 54.416 63.376C56.8907 60.4747 58.128 55.6107 58.128 48.784V0.399994H87.824V49.68C87.824 63.0773 83.984 73.488 76.304 80.912C68.624 88.336 57.9147 92.048 44.176 92.048ZM96.551 90V0.399994H121.383L166.951 54.928H155.431V0.399994H184.871V90H160.039L114.471 35.472H125.991V90H96.551Z" fill="url(#paint0_linear_1_2)"/>
<defs>
<linearGradient id="paint0_linear_1_2" x1="54" y1="-58" x2="172" y2="117" gradientUnits="userSpaceOnUse">
<stop offset="0.180408" stop-color="#9198E5"/>
<stop offset="1" stop-color="#E66465"/>
</linearGradient>
</defs>
</svg>
