<svg width="817" height="94" viewBox="0 0 817 94" fill="none" xmlns="http://www.w3.org/2000/svg">
<path d="M42.304 93.792C29.0773 93.792 18.752 90.1653 11.328 82.912C3.904 75.6587 0.192 65.376 0.192 52.064V2.39999H25.536V51.296C25.536 58.976 27.0293 64.48 30.016 67.808C33.088 71.136 37.2693 72.8 42.56 72.8C47.8507 72.8 51.9893 71.136 54.976 67.808C57.9627 64.48 59.456 58.976 59.456 51.296V2.39999H84.416V52.064C84.416 65.376 80.704 75.6587 73.28 82.912C65.856 90.1653 55.5307 93.792 42.304 93.792ZM96.465 92V2.39999H117.329L166.737 62.048H156.881V2.39999H181.713V92H160.849L111.441 32.352H121.297V92H96.465Z" fill="url(#paint0_linear_1_2)"/>
<path d="M239.142 93.792C232.059 93.792 225.489 92.6827 219.43 90.464C213.457 88.16 208.251 84.9173 203.814 80.736C199.462 76.5547 196.049 71.648 193.574 66.016C191.099 60.2987 189.862 54.0267 189.862 47.2C189.862 40.3733 191.099 34.144 193.574 28.512C196.049 22.7947 199.462 17.8453 203.814 13.664C208.251 9.48266 213.457 6.28266 219.43 4.064C225.489 1.75999 232.059 0.607994 239.142 0.607994C247.419 0.607994 254.801 2.05866 261.286 4.96C267.857 7.86133 273.318 12.0427 277.67 17.504L261.542 32.096C258.641 28.6827 255.441 26.08 251.942 24.288C248.529 22.496 244.689 21.6 240.422 21.6C236.753 21.6 233.382 22.1973 230.31 23.392C227.238 24.5867 224.593 26.336 222.374 28.64C220.241 30.8587 218.534 33.5467 217.254 36.704C216.059 39.8613 215.462 43.36 215.462 47.2C215.462 51.04 216.059 54.5387 217.254 57.696C218.534 60.8533 220.241 63.584 222.374 65.888C224.593 68.1067 227.238 69.8133 230.31 71.008C233.382 72.2027 236.753 72.8 240.422 72.8C244.689 72.8 248.529 71.904 251.942 70.112C255.441 68.32 258.641 65.7173 261.542 62.304L277.67 76.896C273.318 82.272 267.857 86.4533 261.286 89.44C254.801 92.3413 247.419 93.792 239.142 93.792ZM327.159 93.792C319.991 93.792 313.378 92.64 307.319 90.336C301.26 88.032 295.97 84.7893 291.447 80.608C287.01 76.3413 283.554 71.392 281.079 65.76C278.604 60.128 277.367 53.9413 277.367 47.2C277.367 40.4587 278.604 34.272 281.079 28.64C283.554 23.008 287.01 18.1013 291.447 13.92C295.97 9.65333 301.26 6.368 307.319 4.064C313.378 1.75999 319.991 0.607994 327.159 0.607994C334.412 0.607994 341.026 1.75999 346.999 4.064C353.058 6.368 358.306 9.65333 362.743 13.92C367.18 18.1013 370.636 23.008 373.111 28.64C375.671 34.272 376.951 40.4587 376.951 47.2C376.951 53.9413 375.671 60.1707 373.111 65.888C370.636 71.52 367.18 76.4267 362.743 80.608C358.306 84.7893 353.058 88.032 346.999 90.336C341.026 92.64 334.412 93.792 327.159 93.792ZM327.159 72.8C330.572 72.8 333.73 72.2027 336.631 71.008C339.618 69.8133 342.178 68.1067 344.311 65.888C346.53 63.584 348.236 60.8533 349.431 57.696C350.711 54.5387 351.351 51.04 351.351 47.2C351.351 43.2747 350.711 39.776 349.431 36.704C348.236 33.5467 346.53 30.8587 344.311 28.64C342.178 26.336 339.618 24.5867 336.631 23.392C333.73 22.1973 330.572 21.6 327.159 21.6C323.746 21.6 320.546 22.1973 317.559 23.392C314.658 24.5867 312.098 26.336 309.879 28.64C307.746 30.8587 306.039 33.5467 304.759 36.704C303.564 39.776 302.967 43.2747 302.967 47.2C302.967 51.04 303.564 54.5387 304.759 57.696C306.039 60.8533 307.746 63.584 309.879 65.888C312.098 68.1067 314.658 69.8133 317.559 71.008C320.546 72.2027 323.746 72.8 327.159 72.8ZM409.625 92L371.353 2.39999H398.745L431.001 79.968H414.873L447.897 2.39999H472.985L434.585 92H409.625ZM496.406 37.088H538.006V56.032H496.406V37.088ZM498.198 72.416H545.046V92H473.11V2.39999H543.382V21.984H498.198V72.416ZM553.99 92V2.39999H594.95C603.142 2.39999 610.182 3.72266 616.07 6.368C622.043 9.01333 626.651 12.8533 629.894 17.888C633.137 22.8373 634.758 28.7253 634.758 35.552C634.758 42.2933 633.137 48.1387 629.894 53.088C626.651 57.952 622.043 61.7067 616.07 64.352C610.182 66.912 603.142 68.192 594.95 68.192H568.07L579.334 57.568V92H553.99ZM609.414 92L587.142 59.36H614.15L636.55 92H609.414ZM579.334 60.256L568.07 48.608H593.414C598.705 48.608 602.63 47.456 605.19 45.152C607.835 42.848 609.158 39.648 609.158 35.552C609.158 31.3707 607.835 28.128 605.19 25.824C602.63 23.52 598.705 22.368 593.414 22.368H568.07L579.334 10.72V60.256ZM666.916 37.088H708.516V56.032H666.916V37.088ZM668.708 72.416H715.556V92H643.62V2.39999H713.892V21.984H668.708V72.416ZM724.5 92V2.39999H766.868C776.767 2.39999 785.471 4.23466 792.98 7.904C800.489 11.5733 806.335 16.736 810.516 23.392C814.783 30.048 816.916 37.984 816.916 47.2C816.916 56.3307 814.783 64.2667 810.516 71.008C806.335 77.664 800.489 82.8267 792.98 86.496C785.471 90.1653 776.767 92 766.868 92H724.5ZM749.844 71.776H765.844C770.964 71.776 775.401 70.8373 779.156 68.96C782.996 66.9973 785.983 64.1813 788.116 60.512C790.249 56.7573 791.316 52.32 791.316 47.2C791.316 41.9947 790.249 37.5573 788.116 33.888C785.983 30.2187 782.996 27.4453 779.156 25.568C775.401 23.6053 770.964 22.624 765.844 22.624H749.844V71.776Z" fill="#474850"/>
<defs>
<linearGradient id="paint0_linear_1_2" x1="120.858" y1="-48" x2="177.195" y2="110.158" gradientUnits="userSpaceOnUse">
<stop offset="0.179487" stop-color="#9198E5"/>
<stop offset="1" stop-color="#E66465"/>
</linearGradient>
</defs>
</svg>
